<?xml version="1.0" encoding="utf-8"?>
<svg width="241px" height="18px" viewBox="0 0 241 18" version="1.1" xmlns:xlink="http://www.w3.org/1999/xlink" xmlns="http://www.w3.org/2000/svg">
  <defs>
    <path d="M0 9C0 5.68629 2.68629 3 6 3C9.31371 3 12 5.68629 12 9C12 12.3137 9.31371 15 6 15C2.68629 15 0 12.3137 0 9Z" id="path_1" />
    <path d="M15 6C15 2.68629 17.6863 0 21 0C24.3137 0 27 2.68629 27 6C27 9.31371 24.3137 12 21 12C17.6863 12 15 9.31371 15 6Z" id="path_2" />
    <path d="M29 12C29 8.68629 31.6863 6 35 6C38.3137 6 41 8.68629 41 12C41 15.3137 38.3137 18 35 18C31.6863 18 29 15.3137 29 12Z" id="path_3" />
    <path d="M43 6C43 2.68629 45.6863 0 49 0C52.3137 0 55 2.68629 55 6C55 9.31371 52.3137 12 49 12C45.6863 12 43 9.31371 43 6Z" id="path_4" />
    <path d="M58 8C58 4.68629 60.6863 2 64 2C67.3137 2 70 4.68629 70 8C70 11.3137 67.3137 14 64 14C60.6863 14 58 11.3137 58 8Z" id="path_5" />
    <path d="M72 12C72 8.68629 74.6863 6 78 6C81.3137 6 84 8.68629 84 12C84 15.3137 81.3137 18 78 18C74.6863 18 72 15.3137 72 12Z" id="path_6" />
    <path d="M86 10C86 6.68629 88.6863 4 92 4C95.3137 4 98 6.68629 98 10C98 13.3137 95.3137 16 92 16C88.6863 16 86 13.3137 86 10Z" id="path_7" />
    <path d="M101 6C101 2.68629 103.686 0 107 0C110.314 0 113 2.68629 113 6C113 9.31371 110.314 12 107 12C103.686 12 101 9.31371 101 6Z" id="path_8" />
    <path d="M115 8C115 4.68629 117.686 2 121 2C124.314 2 127 4.68629 127 8C127 11.3137 124.314 14 121 14C117.686 14 115 11.3137 115 8Z" id="path_9" />
    <path d="M129 12C129 8.68629 131.686 6 135 6C138.314 6 141 8.68629 141 12C141 15.3137 138.314 18 135 18C131.686 18 129 15.3137 129 12Z" id="path_10" />
    <path d="M143 12C143 8.68629 145.686 6 149 6C152.314 6 155 8.68629 155 12C155 15.3137 152.314 18 149 18C145.686 18 143 15.3137 143 12Z" id="path_11" />
    <path d="M158 8C158 4.68629 160.686 2 164 2C167.314 2 170 4.68629 170 8C170 11.3137 167.314 14 164 14C160.686 14 158 11.3137 158 8Z" id="path_12" />
    <path d="M172 8C172 4.68629 174.686 2 178 2C181.314 2 184 4.68629 184 8C184 11.3137 181.314 14 178 14C174.686 14 172 11.3137 172 8Z" id="path_13" />
    <path d="M186 12C186 8.68629 188.686 6 192 6C195.314 6 198 8.68629 198 12C198 15.3137 195.314 18 192 18C188.686 18 186 15.3137 186 12Z" id="path_14" />
    <path d="M201 12C201 8.68629 203.686 6 207 6C210.314 6 213 8.68629 213 12C213 15.3137 210.314 18 207 18C203.686 18 201 15.3137 201 12Z" id="path_15" />
    <path d="M215 12C215 8.68629 217.686 6 221 6C224.314 6 227 8.68629 227 12C227 15.3137 224.314 18 221 18C217.686 18 215 15.3137 215 12Z" id="path_16" />
    <path d="M229 10C229 6.68629 231.686 4 235 4C238.314 4 241 6.68629 241 10C241 13.3137 238.314 16 235 16C231.686 16 229 13.3137 229 10Z" id="path_17" />
    <clipPath id="clip_1">
      <use xlink:href="#path_1" />
    </clipPath>
    <clipPath id="clip_2">
      <use xlink:href="#path_2" />
    </clipPath>
    <clipPath id="clip_3">
      <use xlink:href="#path_3" />
    </clipPath>
    <clipPath id="clip_4">
      <use xlink:href="#path_4" />
    </clipPath>
    <clipPath id="clip_5">
      <use xlink:href="#path_5" />
    </clipPath>
    <clipPath id="clip_6">
      <use xlink:href="#path_6" />
    </clipPath>
    <clipPath id="clip_7">
      <use xlink:href="#path_7" />
    </clipPath>
    <clipPath id="clip_8">
      <use xlink:href="#path_8" />
    </clipPath>
    <clipPath id="clip_9">
      <use xlink:href="#path_9" />
    </clipPath>
    <clipPath id="clip_10">
      <use xlink:href="#path_10" />
    </clipPath>
    <clipPath id="clip_11">
      <use xlink:href="#path_11" />
    </clipPath>
    <clipPath id="clip_12">
      <use xlink:href="#path_12" />
    </clipPath>
    <clipPath id="clip_13">
      <use xlink:href="#path_13" />
    </clipPath>
    <clipPath id="clip_14">
      <use xlink:href="#path_14" />
    </clipPath>
    <clipPath id="clip_15">
      <use xlink:href="#path_15" />
    </clipPath>
    <clipPath id="clip_16">
      <use xlink:href="#path_16" />
    </clipPath>
    <clipPath id="clip_17">
      <use xlink:href="#path_17" />
    </clipPath>
  </defs>
  <g id="Groupes">
    <g id="Ovale">
      <g clip-path="url(#clip_1)">
        <use xlink:href="#path_1" fill="none" stroke="#FC9958" stroke-width="2" />
      </g>
    </g>
    <g id="Ovale-Copy">
      <g clip-path="url(#clip_2)">
        <use xlink:href="#path_2" fill="none" stroke="#FC9958" stroke-width="2" />
      </g>
    </g>
    <g id="Ovale-Copy-2">
      <g clip-path="url(#clip_3)">
        <use xlink:href="#path_3" fill="none" stroke="#FC9958" stroke-width="2" />
      </g>
    </g>
    <g id="Ovale-Copy-3">
      <g clip-path="url(#clip_4)">
        <use xlink:href="#path_4" fill="none" stroke="#FC9958" stroke-width="2" />
      </g>
    </g>
    <g id="Ovale-Copy-4">
      <g clip-path="url(#clip_5)">
        <use xlink:href="#path_5" fill="none" stroke="#FC9958" stroke-width="2" />
      </g>
    </g>
    <g id="Ovale-Copy-5">
      <g clip-path="url(#clip_6)">
        <use xlink:href="#path_6" fill="none" stroke="#FC9958" stroke-width="2" />
      </g>
    </g>
    <g id="Ovale-Copy-6">
      <g clip-path="url(#clip_7)">
        <use xlink:href="#path_7" fill="none" stroke="#FC9958" stroke-width="2" />
      </g>
    </g>
    <g id="Ovale-Copy-7">
      <g clip-path="url(#clip_8)">
        <use xlink:href="#path_8" fill="none" stroke="#FC9958" stroke-width="2" />
      </g>
    </g>
    <g id="Ovale-Copy-8">
      <g clip-path="url(#clip_9)">
        <use xlink:href="#path_9" fill="none" stroke="#FC9958" stroke-width="2" />
      </g>
    </g>
    <g id="Ovale-Copy-9">
      <g clip-path="url(#clip_10)">
        <use xlink:href="#path_10" fill="none" stroke="#FC9958" stroke-width="2" />
      </g>
    </g>
    <g id="Ovale-Copy-10">
      <g clip-path="url(#clip_11)">
        <use xlink:href="#path_11" fill="none" stroke="#FC9958" stroke-width="2" />
      </g>
    </g>
    <g id="Ovale-Copy-11">
      <g clip-path="url(#clip_12)">
        <use xlink:href="#path_12" fill="none" stroke="#FC9958" stroke-width="2" />
      </g>
    </g>
    <g id="Ovale-Copy-12">
      <g clip-path="url(#clip_13)">
        <use xlink:href="#path_13" fill="none" stroke="#FC9958" stroke-width="2" />
      </g>
    </g>
    <g id="Ovale-Copy-13">
      <g clip-path="url(#clip_14)">
        <use xlink:href="#path_14" fill="none" stroke="#FC9958" stroke-width="2" />
      </g>
    </g>
    <g id="Ovale-Copy-14">
      <g clip-path="url(#clip_15)">
        <use xlink:href="#path_15" fill="none" stroke="#FC9958" stroke-width="2" />
      </g>
    </g>
    <g id="Ovale-Copy-15">
      <g clip-path="url(#clip_16)">
        <use xlink:href="#path_16" fill="none" stroke="#FC9958" stroke-width="2" />
      </g>
    </g>
    <g id="Ovale-Copy-16">
      <g clip-path="url(#clip_17)">
        <use xlink:href="#path_17" fill="none" stroke="#FC9958" stroke-width="2" />
      </g>
    </g>
  </g>
</svg>