<?xml version="1.0" encoding="utf-8"?>
<svg width="238.5px" height="15px" viewBox="0 0 238.5 15" version="1.1" xmlns:xlink="http://www.w3.org/1999/xlink" xmlns="http://www.w3.org/2000/svg">
  <g id="Groupes-16" transform="translate(0.5 0.5)">
    <g id="Groupes">
      <path d="M1 0L0 9" id="Ligne" fill="none" fill-rule="evenodd" stroke="#000000" stroke-width="1" stroke-linecap="square" />
      <path d="M4 0L3 9" id="Ligne-Copy" fill="none" fill-rule="evenodd" stroke="#000000" stroke-width="1" stroke-linecap="square" />
      <path d="M7 0L6 9" id="Ligne-Copy-2" fill="none" fill-rule="evenodd" stroke="#000000" stroke-width="1" stroke-linecap="square" />
      <path d="M9 0L8 9" id="Ligne-Copy-3" fill="none" fill-rule="evenodd" stroke="#000000" stroke-width="1" stroke-linecap="square" />
      <path d="M12 0L11 9" id="Ligne-Copy-4" fill="none" fill-rule="evenodd" stroke="#000000" stroke-width="1" stroke-linecap="square" />
    </g>
    <g id="Groupes-Copy" transform="translate(16.5 1.5)">
      <path d="M1 0L0 9" id="Ligne" fill="none" fill-rule="evenodd" stroke="#000000" stroke-width="1" stroke-linecap="square" />
      <path d="M4 0L3 9" id="Ligne-Copy" fill="none" fill-rule="evenodd" stroke="#000000" stroke-width="1" stroke-linecap="square" />
      <path d="M7 0L6 9" id="Ligne-Copy-2" fill="none" fill-rule="evenodd" stroke="#000000" stroke-width="1" stroke-linecap="square" />
      <path d="M9 0L8 9" id="Ligne-Copy-3" fill="none" fill-rule="evenodd" stroke="#000000" stroke-width="1" stroke-linecap="square" />
      <path d="M12 0L11 9" id="Ligne-Copy-4" fill="none" fill-rule="evenodd" stroke="#000000" stroke-width="1" stroke-linecap="square" />
    </g>
    <g id="Groupes-Copy-2" transform="translate(32 2)">
      <path d="M1 0L0 9" id="Ligne" fill="none" fill-rule="evenodd" stroke="#000000" stroke-width="1" stroke-linecap="square" />
      <path d="M4 0L3 9" id="Ligne-Copy" fill="none" fill-rule="evenodd" stroke="#000000" stroke-width="1" stroke-linecap="square" />
      <path d="M7 0L6 9" id="Ligne-Copy-2" fill="none" fill-rule="evenodd" stroke="#000000" stroke-width="1" stroke-linecap="square" />
      <path d="M9 0L8 9" id="Ligne-Copy-3" fill="none" fill-rule="evenodd" stroke="#000000" stroke-width="1" stroke-linecap="square" />
      <path d="M12 0L11 9" id="Ligne-Copy-4" fill="none" fill-rule="evenodd" stroke="#000000" stroke-width="1" stroke-linecap="square" />
    </g>
    <g id="Groupes-Copy-3" transform="translate(48.5 3.5)">
      <path d="M1 0L0 9" id="Ligne" fill="none" fill-rule="evenodd" stroke="#000000" stroke-width="1" stroke-linecap="square" />
      <path d="M4 0L3 9" id="Ligne-Copy" fill="none" fill-rule="evenodd" stroke="#000000" stroke-width="1" stroke-linecap="square" />
      <path d="M7 0L6 9" id="Ligne-Copy-2" fill="none" fill-rule="evenodd" stroke="#000000" stroke-width="1" stroke-linecap="square" />
      <path d="M9 0L8 9" id="Ligne-Copy-3" fill="none" fill-rule="evenodd" stroke="#000000" stroke-width="1" stroke-linecap="square" />
      <path d="M12 0L11 9" id="Ligne-Copy-4" fill="none" fill-rule="evenodd" stroke="#000000" stroke-width="1" stroke-linecap="square" />
    </g>
    <g id="Groupes-Copy-4" transform="translate(65 5)">
      <path d="M1 0L0 9" id="Ligne" fill="none" fill-rule="evenodd" stroke="#000000" stroke-width="1" stroke-linecap="square" />
      <path d="M4 0L3 9" id="Ligne-Copy" fill="none" fill-rule="evenodd" stroke="#000000" stroke-width="1" stroke-linecap="square" />
      <path d="M7 0L6 9" id="Ligne-Copy-2" fill="none" fill-rule="evenodd" stroke="#000000" stroke-width="1" stroke-linecap="square" />
      <path d="M9 0L8 9" id="Ligne-Copy-3" fill="none" fill-rule="evenodd" stroke="#000000" stroke-width="1" stroke-linecap="square" />
      <path d="M12 0L11 9" id="Ligne-Copy-4" fill="none" fill-rule="evenodd" stroke="#000000" stroke-width="1" stroke-linecap="square" />
    </g>
    <g id="Groupes-Copy-5" transform="translate(81.5 5)">
      <path d="M1 0L0 9" id="Ligne" fill="none" fill-rule="evenodd" stroke="#000000" stroke-width="1" stroke-linecap="square" />
      <path d="M4 0L3 9" id="Ligne-Copy" fill="none" fill-rule="evenodd" stroke="#000000" stroke-width="1" stroke-linecap="square" />
      <path d="M7 0L6 9" id="Ligne-Copy-2" fill="none" fill-rule="evenodd" stroke="#000000" stroke-width="1" stroke-linecap="square" />
      <path d="M9 0L8 9" id="Ligne-Copy-3" fill="none" fill-rule="evenodd" stroke="#000000" stroke-width="1" stroke-linecap="square" />
      <path d="M12 0L11 9" id="Ligne-Copy-4" fill="none" fill-rule="evenodd" stroke="#000000" stroke-width="1" stroke-linecap="square" />
    </g>
    <g id="Groupes-Copy-6" transform="translate(98 4)">
      <path d="M1 0L0 9" id="Ligne" fill="none" fill-rule="evenodd" stroke="#000000" stroke-width="1" stroke-linecap="square" />
      <path d="M4 0L3 9" id="Ligne-Copy" fill="none" fill-rule="evenodd" stroke="#000000" stroke-width="1" stroke-linecap="square" />
      <path d="M7 0L6 9" id="Ligne-Copy-2" fill="none" fill-rule="evenodd" stroke="#000000" stroke-width="1" stroke-linecap="square" />
      <path d="M9 0L8 9" id="Ligne-Copy-3" fill="none" fill-rule="evenodd" stroke="#000000" stroke-width="1" stroke-linecap="square" />
      <path d="M12 0L11 9" id="Ligne-Copy-4" fill="none" fill-rule="evenodd" stroke="#000000" stroke-width="1" stroke-linecap="square" />
    </g>
    <g id="Groupes-Copy-7" transform="translate(113.5 2.5)">
      <path d="M1 0L0 9" id="Ligne" fill="none" fill-rule="evenodd" stroke="#000000" stroke-width="1" stroke-linecap="square" />
      <path d="M4 0L3 9" id="Ligne-Copy" fill="none" fill-rule="evenodd" stroke="#000000" stroke-width="1" stroke-linecap="square" />
      <path d="M7 0L6 9" id="Ligne-Copy-2" fill="none" fill-rule="evenodd" stroke="#000000" stroke-width="1" stroke-linecap="square" />
      <path d="M9 0L8 9" id="Ligne-Copy-3" fill="none" fill-rule="evenodd" stroke="#000000" stroke-width="1" stroke-linecap="square" />
      <path d="M12 0L11 9" id="Ligne-Copy-4" fill="none" fill-rule="evenodd" stroke="#000000" stroke-width="1" stroke-linecap="square" />
    </g>
    <g id="Groupes-Copy-8" transform="translate(130 1)">
      <path d="M1 0L0 9" id="Ligne" fill="none" fill-rule="evenodd" stroke="#000000" stroke-width="1" stroke-linecap="square" />
      <path d="M4 0L3 9" id="Ligne-Copy" fill="none" fill-rule="evenodd" stroke="#000000" stroke-width="1" stroke-linecap="square" />
      <path d="M7 0L6 9" id="Ligne-Copy-2" fill="none" fill-rule="evenodd" stroke="#000000" stroke-width="1" stroke-linecap="square" />
      <path d="M9 0L8 9" id="Ligne-Copy-3" fill="none" fill-rule="evenodd" stroke="#000000" stroke-width="1" stroke-linecap="square" />
      <path d="M12 0L11 9" id="Ligne-Copy-4" fill="none" fill-rule="evenodd" stroke="#000000" stroke-width="1" stroke-linecap="square" />
    </g>
    <g id="Groupes-Copy-9" transform="translate(146.5 0.5)">
      <path d="M1 0L0 9" id="Ligne" fill="none" fill-rule="evenodd" stroke="#000000" stroke-width="1" stroke-linecap="square" />
      <path d="M4 0L3 9" id="Ligne-Copy" fill="none" fill-rule="evenodd" stroke="#000000" stroke-width="1" stroke-linecap="square" />
      <path d="M7 0L6 9" id="Ligne-Copy-2" fill="none" fill-rule="evenodd" stroke="#000000" stroke-width="1" stroke-linecap="square" />
      <path d="M9 0L8 9" id="Ligne-Copy-3" fill="none" fill-rule="evenodd" stroke="#000000" stroke-width="1" stroke-linecap="square" />
      <path d="M12 0L11 9" id="Ligne-Copy-4" fill="none" fill-rule="evenodd" stroke="#000000" stroke-width="1" stroke-linecap="square" />
    </g>
    <g id="Groupes-Copy-10" transform="translate(162.5 0.5)">
      <path d="M1 0L0 9" id="Ligne" fill="none" fill-rule="evenodd" stroke="#000000" stroke-width="1" stroke-linecap="square" />
      <path d="M4 0L3 9" id="Ligne-Copy" fill="none" fill-rule="evenodd" stroke="#000000" stroke-width="1" stroke-linecap="square" />
      <path d="M7 0L6 9" id="Ligne-Copy-2" fill="none" fill-rule="evenodd" stroke="#000000" stroke-width="1" stroke-linecap="square" />
      <path d="M9 0L8 9" id="Ligne-Copy-3" fill="none" fill-rule="evenodd" stroke="#000000" stroke-width="1" stroke-linecap="square" />
      <path d="M12 0L11 9" id="Ligne-Copy-4" fill="none" fill-rule="evenodd" stroke="#000000" stroke-width="1" stroke-linecap="square" />
    </g>
    <g id="Groupes-Copy-11" transform="translate(179.5 1.5)">
      <path d="M1 0L0 9" id="Ligne" fill="none" fill-rule="evenodd" stroke="#000000" stroke-width="1" stroke-linecap="square" />
      <path d="M4 0L3 9" id="Ligne-Copy" fill="none" fill-rule="evenodd" stroke="#000000" stroke-width="1" stroke-linecap="square" />
      <path d="M7 0L6 9" id="Ligne-Copy-2" fill="none" fill-rule="evenodd" stroke="#000000" stroke-width="1" stroke-linecap="square" />
      <path d="M9 0L8 9" id="Ligne-Copy-3" fill="none" fill-rule="evenodd" stroke="#000000" stroke-width="1" stroke-linecap="square" />
      <path d="M12 0L11 9" id="Ligne-Copy-4" fill="none" fill-rule="evenodd" stroke="#000000" stroke-width="1" stroke-linecap="square" />
    </g>
    <g id="Groupes-Copy-12" transform="translate(195.5 2.5)">
      <path d="M1 0L0 9" id="Ligne" fill="none" fill-rule="evenodd" stroke="#000000" stroke-width="1" stroke-linecap="square" />
      <path d="M4 0L3 9" id="Ligne-Copy" fill="none" fill-rule="evenodd" stroke="#000000" stroke-width="1" stroke-linecap="square" />
      <path d="M7 0L6 9" id="Ligne-Copy-2" fill="none" fill-rule="evenodd" stroke="#000000" stroke-width="1" stroke-linecap="square" />
      <path d="M9 0L8 9" id="Ligne-Copy-3" fill="none" fill-rule="evenodd" stroke="#000000" stroke-width="1" stroke-linecap="square" />
      <path d="M12 0L11 9" id="Ligne-Copy-4" fill="none" fill-rule="evenodd" stroke="#000000" stroke-width="1" stroke-linecap="square" />
    </g>
    <g id="Groupes-15" transform="translate(211.5 3.5)">
      <path d="M1 0L0 9" id="Ligne" fill="none" fill-rule="evenodd" stroke="#000000" stroke-width="1" stroke-linecap="square" />
      <path d="M4 0L3 9" id="Ligne-Copy" fill="none" fill-rule="evenodd" stroke="#000000" stroke-width="1" stroke-linecap="square" />
      <path d="M7 0L6 9" id="Ligne-Copy-2" fill="none" fill-rule="evenodd" stroke="#000000" stroke-width="1" stroke-linecap="square" />
      <path d="M9 0L8 9" id="Ligne-Copy-3" fill="none" fill-rule="evenodd" stroke="#000000" stroke-width="1" stroke-linecap="square" />
    </g>
    <g id="Groupes-Copy-14" transform="translate(225.5 4.5)">
      <path d="M1 0L0 9" id="Ligne" fill="none" fill-rule="evenodd" stroke="#000000" stroke-width="1" stroke-linecap="square" />
      <path d="M4 0L3 9" id="Ligne-Copy" fill="none" fill-rule="evenodd" stroke="#000000" stroke-width="1" stroke-linecap="square" />
      <path d="M7 0L6 9" id="Ligne-Copy-2" fill="none" fill-rule="evenodd" stroke="#000000" stroke-width="1" stroke-linecap="square" />
      <path d="M9 0L8 9" id="Ligne-Copy-3" fill="none" fill-rule="evenodd" stroke="#000000" stroke-width="1" stroke-linecap="square" />
      <path d="M12 0L11 9" id="Ligne-Copy-4" fill="none" fill-rule="evenodd" stroke="#000000" stroke-width="1" stroke-linecap="square" />
    </g>
  </g>
</svg>